<?xml version="1.0" encoding="UTF-8" standalone="no"?>
<!-- Created with Inkscape (http://www.inkscape.org/) -->

<svg
   width="370.42383"
   height="365.25647"
   viewBox="0 0 98.007975 96.640774"
   version="1.1"
   id="svg1"
   inkscape:version="1.3.2 (091e20e, 2023-11-25)"
   sodipodi:docname="base-database.svg"
   xml:space="preserve"
   xmlns:inkscape="http://www.inkscape.org/namespaces/inkscape"
   xmlns:sodipodi="http://sodipodi.sourceforge.net/DTD/sodipodi-0.dtd"
   xmlns="http://www.w3.org/2000/svg"
   xmlns:svg="http://www.w3.org/2000/svg"><sodipodi:namedview
     id="namedview1"
     pagecolor="#ffffff"
     bordercolor="#666666"
     borderopacity="1.0"
     inkscape:showpageshadow="2"
     inkscape:pageopacity="0.0"
     inkscape:pagecheckerboard="0"
     inkscape:deskcolor="#d1d1d1"
     inkscape:document-units="mm"
     inkscape:zoom="1.4842023"
     inkscape:cx="293.7605"
     inkscape:cy="99.043105"
     inkscape:window-width="1440"
     inkscape:window-height="847"
     inkscape:window-x="0"
     inkscape:window-y="25"
     inkscape:window-maximized="0"
     inkscape:current-layer="svg1"
     showgrid="true"
     showguides="true"><inkscape:grid
       type="axonomgrid"
       id="grid13"
       units="px"
       originx="-1463.2929"
       originy="-447.77334"
       spacingx="0"
       spacingy="7.9375"
       empcolor="#e50057"
       empopacity="0.30196078"
       color="#ff74f8"
       opacity="0.14901961"
       empspacing="5"
       dotted="false"
       gridanglex="30"
       gridanglez="30"
       visible="true" /><sodipodi:guide
       position="-20.012966,530.11288"
       orientation="0,-1"
       id="guide361"
       inkscape:locked="false" /><sodipodi:guide
       position="-19.804406,454.41964"
       orientation="0,-1"
       id="guide362"
       inkscape:locked="false" /><sodipodi:guide
       position="461.44853,493.08585"
       orientation="0,-1"
       id="guide532"
       inkscape:locked="false" /></sodipodi:namedview><defs
     id="defs1"><inkscape:path-effect
       effect="perspective-envelope"
       up_left_point="206.22225,436.56249"
       up_right_point="274.96301,476.24999"
       down_left_point="137.48148,476.24999"
       down_right_point="206.22225,515.93749"
       id="path-effect130"
       is_visible="true"
       lpeversion="1"
       deform_type="perspective"
       horizontal_mirror="false"
       vertical_mirror="false"
       overflow_perspective="false" /></defs><path
     d="M 49.00373,0.41341 C 34.43045,0.54062 18.9909,3.80162 7.75172,13.62265 1.51702,18.8872 -1.82739,28.20533 2.07928,35.81405 7.28692,46.11095 18.67563,51.29701 29.30931,54.13313 46.41332,58.27075 65.22389,57.32039 81.17068,49.50762 89.45932,45.41207 97.93342,37.81868 97.5986,27.80156 96.9977,17.33891 87.56485,10.17287 78.72197,6.26313 69.40489,2.14565 59.14779,0.43517 49.00373,0.41341 Z"
     style="fill:#fae36f;stroke:#000000;stroke-width:0.79375;stroke-linecap:square;stroke-linejoin:round"
     id="path4"
     sodipodi:nodetypes="cccccccc"
     inkscape:label="path3" /><path
     d="m 0.39688,28.47681 c 0.0365,13.67744 -0.0734,27.35866 0.0556,41.03371 1.04457,10.29273 10.35068,17.15267 19.15749,21.00842 11.35437,4.90653 24.02045,6.3783 36.26846,5.42662 0.0356,-13.22984 0.0852,-26.45968 0.0388,-39.68956 C 39.98205,57.40468 22.86792,54.83714 9.79571,45.06992 4.66322,41.09663 0.36356,35.21613 0.39687,28.47681 Z"
     style="fill:#f3bd5b;stroke:#000000;stroke-width:0.79375;stroke-linecap:square;stroke-linejoin:round"
     id="path2"
     sodipodi:nodetypes="cccccccc" /><path
     d="m 97.6111,28.47681 c -0.0356,7.94083 -5.78302,14.4932 -12.141,18.57418 -8.80938,5.63938 -19.2125,8.32016 -29.5531,9.20501 0.0505,13.22984 -0.0113,26.45973 -0.0328,39.68956 8.37296,-0.77482 17.00846,-2.59644 24.59473,-6.37262 4.08488,-2.0333 7.86555,-4.6333 11.13722,-7.94171 3.92663,-3.80823 6.34234,-9.31375 5.717,-14.82743 0.0926,-12.77567 0.1853,-25.55133 0.27795,-38.32699 z"
     style="stroke:#000000;stroke-width:0.79375;stroke-linecap:square;stroke-linejoin:round"
     id="path1"
     sodipodi:nodetypes="ccccsccc" /><path
     style="fill:none;stroke:none;stroke-width:0.264583px;stroke-linecap:butt;stroke-linejoin:miter;stroke-opacity:1"
     d="M 0,0 97.12261,0.6954 98.00506,53.97921 0.88554,56.2579 V 0.6954"
     id="top-face"
     inkscape:label="#top-face" /><circle
     style="display:inline;fill:#ff0000;stroke-width:0.396875;stroke-linecap:round;stroke-dasharray:0.529167, 0.529167"
     id="attach-top"
     cx="49.004074"
     cy="28.476654"
     r="1.3229167" /><circle
     style="display:inline;fill:#ff0000;stroke-width:0.396875;stroke-linecap:round;stroke-dasharray:0.529167, 0.529167"
     id="attach-fron-left"
     cx="14.631187"
     cy="68.816772"
     r="1.3229167" /><circle
     style="display:inline;fill:#ff0000;stroke-width:0.396875;stroke-linecap:round;stroke-dasharray:0.529167, 0.529167"
     id="attach-front-right"
     cx="76.500381"
     cy="67.493858"
     r="1.3229167" /><circle
     style="display:inline;fill:#ff0000;stroke-width:0.396875;stroke-linecap:round;stroke-dasharray:0.529167, 0.529167"
     id="back-right"
     cx="-76.500381"
     cy="28.476654"
     r="1.3229167"
     transform="scale(-1,1)" /><circle
     style="display:inline;fill:#ff0000;stroke-width:0.396875;stroke-linecap:round;stroke-dasharray:0.529167, 0.529167"
     id="back-left"
     cx="-14.573364"
     cy="28.079935"
     r="1.3229167"
     transform="scale(-1,1)" /><circle
     style="display:inline;fill:#ff0000;stroke-width:0.396875;stroke-linecap:round;stroke-dasharray:0.529167, 0.529167"
     id="bottom"
     cx="49.003986"
     cy="67.493858"
     r="1.3229167" /></svg>
