<?xml version="1.0" encoding="UTF-8" standalone="no"?>
<!-- Created with Inkscape (http://www.inkscape.org/) -->

<svg
   width="210mm"
   height="297mm"
   viewBox="0 0 210 297"
   version="1.1"
   id="svg1"
   inkscape:version="1.3.2 (091e20e, 2023-11-25)"
   sodipodi:docname="blue-server.svg"
   xmlns:inkscape="http://www.inkscape.org/namespaces/inkscape"
   xmlns:sodipodi="http://sodipodi.sourceforge.net/DTD/sodipodi-0.dtd"
   xmlns:xlink="http://www.w3.org/1999/xlink"
   xmlns="http://www.w3.org/2000/svg"
   xmlns:svg="http://www.w3.org/2000/svg">
  <sodipodi:namedview
     id="namedview1"
     pagecolor="#ffffff"
     bordercolor="#666666"
     borderopacity="1.0"
     inkscape:showpageshadow="2"
     inkscape:pageopacity="0.0"
     inkscape:pagecheckerboard="0"
     inkscape:deskcolor="#d1d1d1"
     inkscape:document-units="mm"
     inkscape:zoom="4.3826287"
     inkscape:cx="452.69635"
     inkscape:cy="390.63314"
     inkscape:window-width="1440"
     inkscape:window-height="847"
     inkscape:window-x="0"
     inkscape:window-y="25"
     inkscape:window-maximized="1"
     inkscape:current-layer="svg1" />
  <defs
     id="defs1">
    <linearGradient
       id="New_Gradient_Swatch_1"
       data-name="New Gradient Swatch 1"
       x1="567.29999"
       y1="146.42999"
       x2="709.15997"
       y2="146.42999"
       gradientUnits="userSpaceOnUse">
      <stop
         offset="0"
         stop-color="#66c"
         id="stop1" />
      <stop
         offset=".99"
         stop-color="#2b2b6d"
         id="stop2" />
    </linearGradient>
    <linearGradient
       id="New_Gradient_Swatch_1-2"
       data-name="New Gradient Swatch 1"
       x1="603.71002"
       y1="126.3"
       x2="673.75"
       y2="126.3"
       xlink:href="#New_Gradient_Swatch_1" />
  </defs>
  <path
     d="m 86.23298,91.523097 c 0.0079,5.151196 -0.01583,10.303703 0.01186,15.454083 0.275875,0.92998 1.334562,1.16546 2.053493,1.67086 5.024223,2.89335 10.035807,5.80974 15.067947,8.68866 0.73521,0.26702 1.92213,0.52168 2.74,0.18953 l -9e-5,-15.30614 c -1.24662,0.36719 -2.49686,-0.0834 -3.62247,-0.68248 C 97.319159,98.555681 92.1546,95.573723 86.99004,92.591765 86.616078,92.351898 86.234325,92.002707 86.23298,91.523097 Z"
     style="display:inline;fill:#4444aa;stroke-width:0.264583"
     id="path3"
     sodipodi:nodetypes="ccccccccc" />
  <path
     d="m 123.76712,91.523097 c -0.10267,0.976958 -1.20306,1.250849 -1.90028,1.728878 -5.06824,2.920145 -10.12613,5.859131 -15.20084,8.767495 -0.27935,0.11872 -0.55981,0.20062 -0.55981,0.20062 0,0 9e-5,0.70173 9e-5,1.00598 v 14.30016 c 1.16911,-0.4312 2.18878,-1.18593 3.28646,-1.77097 4.59675,-2.66126 9.20635,-5.30134 13.79504,-7.97585 0.83622,-0.50461 0.51727,-1.52805 0.57943,-2.32811 z"
     style="display:inline;fill:#1a1a59;stroke-width:0.264583"
     id="path2"
     sodipodi:nodetypes="cccccccccc" />
  <path
     d="m 104.99979,80.69895 c -0.66476,0 -1.32945,0.145625 -1.83348,0.436666 l -16.17627,9.339482 c -1.008063,0.582084 -1.008063,1.534584 0,2.116667 l 16.17627,9.339995 c 1.00807,0.58209 2.65942,0.58209 3.66748,0 l 16.17627,-9.339995 c 1.00807,-0.582083 1.00807,-1.534583 0,-2.116667 l -16.17627,-9.339482 c -0.50403,-0.291041 -1.16923,-0.436666 -1.834,-0.436666 z"
     style="display:inline;fill:#7777d8;stroke-width:0.264583"
     id="path1" />
  <ellipse
     style="opacity:0.419954;fill:#000000;stroke-width:0.396875;stroke-linecap:round;stroke-dasharray:0.529167, 0.529167"
     id="attach-top"
     cx="105.00006"
     cy="91.533638"
     rx="0.98524857"
     ry="0.9380483" />
  <ellipse
     style="opacity:0.419954;fill:#000000;stroke-width:0.396875;stroke-linecap:round;stroke-dasharray:0.529167, 0.529167"
     id="attach-bottom"
     cx="105.00006"
     cy="104.59627"
     rx="0.98524857"
     ry="0.9380483" />
  <ellipse
     style="opacity:0.419954;fill:#000000;stroke-width:0.396875;stroke-linecap:round;stroke-dasharray:0.529167, 0.529167"
     id="attach-back-left"
     cx="96.169571"
     cy="93.761581"
     rx="0.98524857"
     ry="0.9380483" />
  <ellipse
     style="opacity:0.419954;fill:#000000;stroke-width:0.396875;stroke-linecap:round;stroke-dasharray:0.529167, 0.529167"
     id="attach-front-left"
     cx="96.169571"
     cy="104.59627"
     rx="0.98524857"
     ry="0.9380483" />
  <ellipse
     style="opacity:0.419954;fill:#000000;stroke-width:0.396875;stroke-linecap:round;stroke-dasharray:0.529167, 0.529167"
     id="attach-back-right"
     cx="114.93665"
     cy="93.689957"
     rx="0.98524857"
     ry="0.9380483" />
  <ellipse
     style="opacity:0.419954;fill:#000000;stroke-width:0.396875;stroke-linecap:round;stroke-dasharray:0.529167, 0.529167"
     id="attach-front-right"
     cx="114.93665"
     cy="104.52464"
     rx="0.98524857"
     ry="0.9380483" />
</svg>
