<?xml version="1.0" encoding="UTF-8" standalone="no"?>
<!-- Created with Inkscape (http://www.inkscape.org/) -->

<svg
   width="273.36444"
   height="168.42087"
   viewBox="0 0 72.327677 44.561355"
   version="1.1"
   id="svg1"
   inkscape:version="1.3.2 (091e20e, 2023-11-25)"
   sodipodi:docname="flowchart-top.svg"
   xml:space="preserve"
   inkscape:export-filename="flowchart-top.svg"
   inkscape:export-xdpi="99.998"
   inkscape:export-ydpi="99.998"
   xmlns:inkscape="http://www.inkscape.org/namespaces/inkscape"
   xmlns:sodipodi="http://sodipodi.sourceforge.net/DTD/sodipodi-0.dtd"
   xmlns="http://www.w3.org/2000/svg"
   xmlns:svg="http://www.w3.org/2000/svg"><sodipodi:namedview
     id="namedview1"
     pagecolor="#ffffff"
     bordercolor="#666666"
     borderopacity="1.0"
     inkscape:showpageshadow="2"
     inkscape:pageopacity="0.0"
     inkscape:pagecheckerboard="0"
     inkscape:deskcolor="#d1d1d1"
     inkscape:document-units="mm"
     inkscape:zoom="2.4570429"
     inkscape:cx="143.05815"
     inkscape:cy="118.02806"
     inkscape:window-width="1440"
     inkscape:window-height="847"
     inkscape:window-x="0"
     inkscape:window-y="25"
     inkscape:window-maximized="0"
     inkscape:current-layer="svg1"
     showgrid="true"
     showguides="true"><inkscape:grid
       type="axonomgrid"
       id="grid13"
       units="px"
       originx="-2680.2618"
       originy="-222.7599"
       spacingx="0"
       spacingy="7.9375"
       empcolor="#e50057"
       empopacity="0.30196078"
       color="#ff74f8"
       opacity="0.14901961"
       empspacing="5"
       dotted="false"
       gridanglex="30"
       gridanglez="30"
       visible="true" /><sodipodi:guide
       position="-1236.9818,305.09944"
       orientation="0,-1"
       id="guide361"
       inkscape:locked="false" /><sodipodi:guide
       position="-1236.7732,229.40619"
       orientation="0,-1"
       id="guide362"
       inkscape:locked="false" /><sodipodi:guide
       position="-755.52024,268.07241"
       orientation="0,-1"
       id="guide532"
       inkscape:locked="false" /></sodipodi:namedview><defs
     id="defs1" /><path
     id="path608"
     style="fill:#000000;fill-opacity:0.25;stroke:none;stroke-width:0.79375;stroke-linecap:round;stroke-dasharray:none"
     d="m 21.6765,29.86067 c -1.3445,1.31438 -2.8463,-0.0917 -4.1979,1.16717 -1.3129,-1.218 -2.6121,0.69186 -3.9204,-0.1509 -3.387,1.94162 -6.7779,3.87679 -10.1418,5.8581 -2.4306,3.16224 1.5239,5.33807 4.3164,5.37651 3.1287,0.57709 6.3581,1.00509 9.2342,2.4498 1.287,-1.14571 2.7311,-0.13739 4.1066,-1.0469 1.3686,0.86524 2.738,-0.49096 4.1564,-0.0497 3.3344,-1.92763 6.6705,-3.85247 10.0063,-5.7776 -4.5197,-2.60888 -9.0407,-5.21753 -13.5598,-7.82653 z" /><path
     id="path609"
     style="fill:#000000;fill-opacity:0.25;stroke:none;stroke-width:0.79375;stroke-linecap:round;stroke-dasharray:none"
     d="m 59.3147,29.11487 c 4.0222,2.3223 8.0444,4.6446 12.0665,6.9669 0.6531,1.01414 -1.3272,1.34692 -1.9634,1.93114 -1.9457,1.08528 -3.8339,2.28742 -5.8173,3.29595 -1.4624,0.17117 -2.5719,-1.10447 -3.847,-1.66317 -3.1677,-1.87533 -6.431,-3.62041 -9.5391,-5.57684 0.1068,-1.00426 1.5595,-1.20838 2.2909,-1.81693 1.9008,-1.05988 3.7431,-2.23973 5.6824,-3.22088 0.3685,-0.0935 0.7831,-0.10137 1.127,0.0838 z" /><path
     style="fill:#000000;fill-opacity:0.5;stroke:none;stroke-width:0.79375;stroke-linecap:butt;stroke-linejoin:miter;stroke-dasharray:none;stroke-opacity:1"
     d="m 46.057,18.02041 c 0.736,3.30326 1.4721,6.60653 2.2081,9.90979 -5.7233,-0.42359 -11.4465,-0.8472 -17.1699,-1.27079 4.9873,-2.87967 9.9746,-5.75933 14.9618,-8.639 z"
     id="path610" /><path
     id="path611"
     style="fill:#000000;fill-opacity:0.25;stroke:none;stroke-width:0.79375;stroke-linecap:round;stroke-dasharray:none"
     d="m 34.4028,1.31047 8.7315,5.04102 c 0.1374,0.077 0.2016,0.18416 0.1832,0.30052 -0.01,0.11636 -0.1007,0.23088 -0.2565,0.31792 l -5.2774,3.04642 c -0.1466,0.087 -0.3482,0.1411 -0.5497,0.14934 -0.2016,0.008 -0.3848,-0.0302 -0.5223,-0.10628 L 27.9801,5.01839 c -0.1283,-0.076 -0.1924,-0.18415 -0.1832,-0.30051 0.018,-0.11545 0.1099,-0.22997 0.2657,-0.31793 l 5.2682,-3.0455 c 0.1558,-0.088 0.3573,-0.14202 0.5589,-0.15026 0.1924,-0.008 0.3848,0.0302 0.5131,0.10628 z" /><path
     id="path612"
     style="fill:#000000;fill-opacity:0.25;stroke:none;stroke-width:0.79375;stroke-linecap:round;stroke-dasharray:none"
     d="m 25.2131,6.61811 8.7316,5.04102 c 0.1282,0.076 0.2015,0.18416 0.1832,0.30052 -0.01,0.11544 -0.1099,0.22997 -0.2565,0.31792 l -5.2774,3.0455 c -0.1558,0.088 -0.3482,0.14202 -0.5498,0.15026 -0.2015,0.007 -0.3848,-0.0302 -0.5222,-0.10719 l -8.7315,-5.04011 c -0.1283,-0.077 -0.1925,-0.18507 -0.1833,-0.30052 0.018,-0.11636 0.11,-0.23088 0.2565,-0.31792 l 5.2775,-3.04642 c 0.1557,-0.087 0.3481,-0.1411 0.5497,-0.14934 0.2015,-0.008 0.394,0.0302 0.5222,0.10628 z" /><path
     id="path613"
     style="fill:#000000;fill-opacity:0.25;stroke:none;stroke-width:0.79375;stroke-linecap:round;stroke-dasharray:none"
     d="m 15.9777,11.94865 8.7315,5.04102 c 0.1374,0.076 0.2016,0.18416 0.1832,0.30052 -0.01,0.11544 -0.1007,0.22997 -0.2565,0.31793 l -5.2774,3.0455 c -0.1466,0.088 -0.3482,0.14201 -0.5497,0.15026 -0.2016,0.008 -0.3848,-0.0302 -0.5223,-0.10629 L 9.555,15.65658 C 9.4267,15.58048 9.3626,15.47242 9.3718,15.35606 9.3898,15.24061 9.4817,15.12609 9.6375,15.03813 l 5.2682,-3.0455 c 0.1558,-0.088 0.3573,-0.14201 0.5589,-0.15026 0.1924,-0.008 0.3848,0.0302 0.5131,0.10628 z" /><path
     id="path614"
     style="fill:#000000;fill-opacity:0.25;stroke:none;stroke-width:0.79375;stroke-linecap:round;stroke-dasharray:none"
     d="m 6.788,17.25629 8.7316,5.04102 c 0.1282,0.076 0.2015,0.18416 0.1832,0.2996 -0.01,0.11636 -0.1099,0.23089 -0.2565,0.31884 l -5.2774,3.0455 c -0.1558,0.088 -0.3482,0.1411 -0.5498,0.14935 -0.2015,0.008 -0.3939,-0.0293 -0.5222,-0.10628 L 0.3654,20.9633 c -0.1283,-0.076 -0.2016,-0.18416 -0.1833,-0.29961 0.018,-0.11635 0.11,-0.23088 0.2566,-0.31884 l 5.2774,-3.0455 c 0.1557,-0.088 0.3481,-0.1411 0.5497,-0.14934 0.2015,-0.008 0.394,0.0302 0.5222,0.10628 z" /><path
     id="path615"
     style="fill:#ffffff;fill-opacity:1;stroke:#000000;stroke-width:0.79375;stroke-linecap:round;stroke-dasharray:none"
     d="m 34.6043,0.50603 c 2.9106,1.68034 5.821,3.36068 8.7316,5.04102 0.4712,0.7255 -0.9384,0.96469 -1.3935,1.38032 C 40.5339,7.71415 39.1658,8.58289 37.7309,9.3159 36.6821,9.45004 35.8887,8.5364 34.9771,8.13629 32.6734,6.7712 30.2967,5.5042 28.0386,4.07802 c 0.074,-0.7144 1.111,-0.86368 1.6331,-1.29714 1.3795,-0.76822 2.7141,-1.62877 4.123,-2.33635 0.2646,-0.0656 0.5634,-0.0746 0.8096,0.0615 z" /><path
     id="path616"
     style="fill:#000000;stroke:#000000;stroke-width:0.79375;stroke-linecap:round;stroke-dasharray:none"
     d="m 25.4147,5.81275 c 2.9105,1.68034 5.821,3.36068 8.7315,5.04102 0.4667,0.72811 -0.938,0.96444 -1.3934,1.38032 -1.4098,0.78642 -2.7776,1.65844 -4.2149,2.38866 -1.0472,0.13383 -1.8399,-0.77948 -2.7504,-1.17883 -2.3037,-1.36515 -4.6806,-2.63201 -6.9386,-4.05838 0.067,-0.71844 1.105,-0.86362 1.6246,-1.29597 1.3804,-0.76955 2.719,-1.62451 4.127,-2.33786 0.2662,-0.0683 0.5658,-0.0727 0.8142,0.061 z" /><path
     id="path617"
     style="fill:#ffffff;fill-opacity:1;stroke:#000000;stroke-width:0.79375;stroke-linecap:round;stroke-dasharray:none"
     d="m 16.1792,11.14421 c 2.9106,1.68034 5.821,3.36068 8.7316,5.04102 0.4712,0.7255 -0.9384,0.96469 -1.3935,1.38032 -1.4085,0.78658 -2.7763,1.65583 -4.2115,2.3882 -1.0488,0.13467 -1.8422,-0.77925 -2.7538,-1.17928 -2.3037,-1.36509 -4.6804,-2.63209 -6.9385,-4.05827 0.074,-0.7144 1.111,-0.86368 1.6331,-1.29714 1.3795,-0.76842 2.7143,-1.62846 4.123,-2.33669 0.2649,-0.0656 0.5631,-0.0732 0.8096,0.0618 z" /><path
     id="path618"
     style="fill:#000000;stroke:#000000;stroke-width:0.79375;stroke-linecap:round;stroke-dasharray:none"
     d="m 6.9896,16.45093 c 2.9105,1.68034 5.821,3.36068 8.7315,5.04102 0.4667,0.72807 -0.938,0.9645 -1.3934,1.38032 -1.4098,0.78642 -2.7776,1.65844 -4.215,2.38866 -1.047,0.1342 -1.8397,-0.7796 -2.7503,-1.17882 -2.3052,-1.36492 -4.6808,-2.63432 -6.9421,-4.05873 0.075,-0.71901 1.1068,-0.86312 1.6281,-1.29563 1.3804,-0.76955 2.719,-1.62451 4.127,-2.33786 0.2662,-0.0684 0.5658,-0.0727 0.8142,0.061 z" /><path
     style="fill:#ffffff;fill-opacity:1;stroke:#000000;stroke-width:0.79375;stroke-linecap:butt;stroke-linejoin:miter;stroke-dasharray:none;stroke-opacity:1"
     d="m 46.2586,17.21597 c 0.736,3.30327 1.4721,6.60653 2.2081,9.90979 -5.7233,-0.4239 -11.4466,-0.8478 -17.1699,-1.2717 4.9872,-2.87937 9.9746,-5.75872 14.9618,-8.63809 z"
     id="path620" /><path
     style="fill:none;stroke:#000000;stroke-width:0.79375;stroke-linecap:butt;stroke-linejoin:miter;stroke-dasharray:none;stroke-opacity:1"
     d="m 40.7888,7.78353 5.0942,2.94106 -12.9095,7.45616 5.8088,3.35427"
     id="path621"
     sodipodi:nodetypes="cccc" /><path
     style="fill:none;stroke:#000000;stroke-width:0.79375;stroke-linecap:butt;stroke-linejoin:miter;stroke-dasharray:none;stroke-opacity:1"
     d="m 31.4342,12.99497 5.2591,3.03725"
     id="path622"
     sodipodi:nodetypes="cc" /><path
     style="fill:none;stroke:#000000;stroke-width:0.79375;stroke-linecap:butt;stroke-linejoin:miter;stroke-dasharray:none;stroke-opacity:1"
     d="m 22.1988,18.32643 5.2591,3.03634 5.5156,-3.18202"
     id="path623"
     sodipodi:nodetypes="ccc" /><path
     style="fill:none;stroke:#000000;stroke-width:0.79375;stroke-linecap:butt;stroke-linejoin:miter;stroke-dasharray:none;stroke-opacity:1"
     d="m 12.7526,23.78249 5.2591,3.03726 9.437,-5.46523"
     id="path624"
     sodipodi:nodetypes="ccc" /><path
     id="path633"
     style="fill:#ffffff;stroke:#000000;stroke-width:0.79375;stroke-linecap:round;stroke-dasharray:none"
     d="m 21.8781,29.05532 c 4.52,2.60878 9.04,5.21752 13.56,7.82631 -3.4912,2.01521 -6.9827,4.03005 -10.4724,6.04794 -3.9973,-2.09852 -8.7047,-1.845 -12.8484,-3.46993 -3.1424,-1.68943 -0.5209,-5.31717 2.0095,-5.94529 2.5789,-1.49481 5.1647,-2.97751 7.7513,-4.45903 z" /><path
     id="path634"
     style="fill:#ffffff;fill-opacity:1;stroke:#000000;stroke-width:0.79375;stroke-linecap:round;stroke-dasharray:none"
     d="m 19.4135,29.36041 c 4.5199,2.60879 9.04,5.21753 13.56,7.82632 -3.4913,2.01485 -6.9828,4.02927 -10.4724,6.04702 -3.9961,-2.09917 -8.703,-1.84465 -12.846,-3.469 -3.1445,-1.68762 -0.5241,-5.31751 2.007,-5.94564 2.5788,-1.49489 5.1647,-2.97742 7.7514,-4.4587 z" /><path
     id="path635"
     style="fill:#ffffff;stroke:#000000;stroke-width:0.79375;stroke-linecap:round;stroke-dasharray:none"
     d="m 16.5549,29.57847 c 4.5169,2.60877 9.0339,5.21755 13.5508,7.82632 -3.4905,2.01618 -6.9808,4.03262 -10.4723,6.04702 C 15.6392,41.35318 10.9343,41.60739 6.7935,39.98269 3.6531,38.29418 6.2718,34.66602 8.801,34.03652 c 2.579,-1.49575 5.166,-2.97758 7.7539,-4.45805 z" /><path
     id="path636"
     style="fill:#ffffff;fill-opacity:1;stroke:#000000;stroke-width:0.79375;stroke-linecap:round;stroke-dasharray:none"
     d="m 14.0903,29.88266 c 4.5169,2.60908 9.0339,5.21815 13.5508,7.82723 -3.4905,2.01618 -6.9808,4.03262 -10.4723,6.04702 C 13.1747,41.65781 8.4697,41.91168 4.329,40.2872 1.1883,38.59888 3.8076,34.97111 6.3363,34.34149 c 2.5791,-1.49598 5.1661,-2.97809 7.754,-4.45883 z" /><path
     style="fill:none;stroke:#000000;stroke-width:0.79375;stroke-linecap:butt;stroke-linejoin:miter;stroke-dasharray:none;stroke-opacity:1"
     d="M 38.1684,26.36256 27.6961,32.40958"
     id="path637" /><path
     id="path640"
     style="fill:#ffffff;stroke:#000000;stroke-width:0.79375;stroke-linecap:round;stroke-dasharray:none"
     d="m 59.5162,28.30952 c 4.0729,2.39279 8.2299,4.67054 12.2503,7.13499 -1.3877,2.05343 -4.7661,2.91367 -6.8925,4.49999 -1.5147,1.42473 -3.1124,-0.15278 -4.5168,-0.87123 -3.2957,-1.94487 -6.6775,-3.7725 -9.9196,-5.79051 1.3877,-2.05386 4.7634,-2.9131 6.8893,-4.4982 0.6456,-0.40359 1.4189,-0.88302 2.1893,-0.47504 z" /><path
     style="fill:none;stroke:#000000;stroke-width:0.79375;stroke-linecap:butt;stroke-linejoin:miter;stroke-dasharray:none;stroke-opacity:1"
     d="m 48.4667,27.12576 5.8638,3.38634"
     id="path641" /><circle
     style="display:inline;fill:#ff0000;stroke-width:0.396875;stroke-linecap:round;stroke-dasharray:0.529167, 0.529167"
     id="attach-point"
     cx="-35.236301"
     cy="26.018867"
     r="1.3229167"
     transform="scale(-1,1)" /></svg>
