<?xml version="1.0" encoding="UTF-8" standalone="no"?>
<!-- Created with Inkscape (http://www.inkscape.org/) -->

<svg
   width="177.67046"
   height="115.97119"
   viewBox="0 0 47.008644 30.684045"
   version="1.1"
   id="svg1"
   xml:space="preserve"
   sodipodi:docname="grill-front.svg"
   inkscape:version="1.3.2 (091e20e, 2023-11-25)"
   xmlns:inkscape="http://www.inkscape.org/namespaces/inkscape"
   xmlns:sodipodi="http://sodipodi.sourceforge.net/DTD/sodipodi-0.dtd"
   xmlns="http://www.w3.org/2000/svg"
   xmlns:svg="http://www.w3.org/2000/svg"><sodipodi:namedview
     id="namedview1"
     pagecolor="#ffffff"
     bordercolor="#666666"
     borderopacity="1.0"
     inkscape:showpageshadow="2"
     inkscape:pageopacity="0.0"
     inkscape:pagecheckerboard="0"
     inkscape:deskcolor="#d1d1d1"
     inkscape:zoom="2.0349879"
     inkscape:cx="105.16033"
     inkscape:cy="69.779285"
     inkscape:window-width="1440"
     inkscape:window-height="847"
     inkscape:window-x="0"
     inkscape:window-y="25"
     inkscape:window-maximized="1"
     inkscape:current-layer="svg1" /><defs
     id="defs1" /><path
     d="M 1.5340878,0 C 1.1414171,-4.9999277e-6 0.74899925,0.2593326 0.44939955,0.7782471 c -0.5991994,1.0378291 -0.5991994,2.720578 0,3.758427 0.59919935,1.037849 1.57069405,1.037839 2.16989335,0 0.5991894,-1.037839 0.5991994,-2.7205879 0,-3.758427 C 2.3196983,0.2593226 1.9267588,5.0000723e-6 1.5340878,0 Z m 4.8823895,2.8189495 c -0.3926709,-5e-6 -0.7856054,0.2593376 -1.0852051,0.778247 -0.5991993,1.037829 -0.5991993,2.7205681 0,3.7584271 0.5991994,1.0378489 1.570694,1.0378489 2.1698934,0 0.5991894,-1.037839 0.5991995,-2.7205881 0,-3.7584271 C 7.2015709,3.0782771 6.8091481,2.8189545 6.4164773,2.8189495 Z m 4.8823887,2.8184326 c -0.39267,-5e-6 -0.785604,0.2598494 -1.085204,0.7787639 -0.5991998,1.037829 -0.5991998,2.7200613 0,3.75791 0.5992,1.037848 1.570693,1.037848 2.169893,0 0.599188,-1.0378287 0.599198,-2.720071 0,-3.75791 C 12.08396,5.8972215 11.691537,5.6373871 11.298866,5.6373821 Z m 4.881872,2.8189495 c -0.392671,-5e-6 -0.785089,0.2593376 -1.084688,0.7782471 -0.5992,1.0378293 -0.5992,2.7205673 0,3.7584263 0.599199,1.037848 1.570694,1.037838 2.169893,0 0.599189,-1.037839 0.599199,-2.720587 0,-3.7584263 C 16.966348,8.7156592 16.573409,8.4563366 16.180738,8.4563316 Z m 4.882389,2.8189484 c -0.392671,-5e-6 -0.785088,0.259333 -1.084688,0.778247 -0.599199,1.037829 -0.599199,2.720577 0,3.758426 0.599199,1.037849 1.570694,1.037849 2.169893,0 0.59919,-1.037829 0.5992,-2.720587 0,-3.758426 -0.299594,-0.518924 -0.692534,-0.778242 -1.085205,-0.778247 z m 4.88239,2.818432 c -0.392671,-5e-6 -0.785606,0.259854 -1.085205,0.778764 -0.5992,1.037829 -0.5992,2.720051 0,3.75791 0.599199,1.037849 1.570694,1.037839 2.169893,0 0.59919,-1.037839 0.5992,-2.720071 0,-3.75791 -0.299595,-0.51892 -0.692017,-0.778759 -1.084688,-0.778764 z m 4.882389,2.818949 c -0.392671,-5e-6 -0.785605,0.259333 -1.085205,0.778247 -0.599199,1.037829 -0.599199,2.720578 0,3.758427 0.5992,1.037849 1.570694,1.037849 2.169894,0 0.599189,-1.037829 0.599199,-2.720588 0,-3.758427 C 31.613,17.171984 31.220577,16.912666 30.827906,16.912661 Z m 4.881873,2.81895 c -0.392671,-7e-6 -0.785089,0.259332 -1.084688,0.778247 -0.5992,1.037829 -0.5992,2.720568 0,3.758427 0.599199,1.037849 1.570694,1.037839 2.169893,0 0.599189,-1.037839 0.599199,-2.720588 0,-3.758427 -0.299595,-0.51892 -0.692534,-0.778241 -1.085205,-0.778247 z m 4.882389,2.818432 c -0.39267,-5e-6 -0.785088,0.25985 -1.084688,0.778764 -0.599199,1.037829 -0.599199,2.720061 0,3.75791 0.599199,1.037849 1.570694,1.037849 2.169893,0 0.59919,-1.037829 0.5992,-2.720071 0,-3.75791 -0.299594,-0.518924 -0.692534,-0.778759 -1.085205,-0.778764 z m 4.88239,2.81895 c -0.392671,-6e-6 -0.785606,0.259332 -1.085205,0.778247 -0.5992,1.037829 -0.5992,2.720568 0,3.758427 0.599199,1.037839 1.570694,1.037839 2.169893,0 0.59919,-1.037839 0.5992,-2.720588 0,-3.758427 -0.299595,-0.51892 -0.692017,-0.778241 -1.084688,-0.778247 z"
     style="fill:#ffffff;stroke:none;stroke-width:0.264583px"
     id="path1" /><circle
     style="display:inline;fill:#ff0000;stroke-width:0.396875;stroke-linecap:round;stroke-dasharray:0.529167, 0.529167"
     id="attach-back-right"
     cx="22.6775"
     cy="14.434776"
     r="1.3229167" /></svg>
