<?xml version="1.0" encoding="UTF-8" standalone="no"?>
<!-- Created with Inkscape (http://www.inkscape.org/) -->

<svg
   width="177.67046"
   height="115.97121"
   viewBox="0 0 47.008644 30.684049"
   version="1.1"
   id="svg1"
   xml:space="preserve"
   sodipodi:docname="grill-front.svg"
   inkscape:version="1.3.2 (091e20e, 2023-11-25)"
   xmlns:inkscape="http://www.inkscape.org/namespaces/inkscape"
   xmlns:sodipodi="http://sodipodi.sourceforge.net/DTD/sodipodi-0.dtd"
   xmlns="http://www.w3.org/2000/svg"
   xmlns:svg="http://www.w3.org/2000/svg"><sodipodi:namedview
     id="namedview1"
     pagecolor="#ffffff"
     bordercolor="#666666"
     borderopacity="1.0"
     inkscape:showpageshadow="2"
     inkscape:pageopacity="0.0"
     inkscape:pagecheckerboard="0"
     inkscape:deskcolor="#d1d1d1"
     inkscape:zoom="2.0349879"
     inkscape:cx="88.944019"
     inkscape:cy="57.985603"
     inkscape:window-width="1312"
     inkscape:window-height="449"
     inkscape:window-x="1920"
     inkscape:window-y="146"
     inkscape:window-maximized="0"
     inkscape:current-layer="svg1" /><defs
     id="defs1" /><path
     d="m -2.6992457,-3.1750002 c -0.3926707,-5e-6 -0.7850886,0.2593326 -1.0846883,0.7782471 -0.5991994,1.0378291 -0.5991994,2.72057802 0,3.758427 0.5991994,1.037849 1.5706941,1.037839 2.1698934,0 0.5991894,-1.03783898 0.5991994,-2.7205879 0,-3.758427 -0.2995946,-0.5189245 -0.6925341,-0.7782421 -1.0852051,-0.7782471 z m 4.8823895,2.81894953 c -0.3926709,-5e-6 -0.7856054,0.2593376 -1.0852051,0.77824699 -0.59919939,1.03782898 -0.59919939,2.72056808 0,3.75842708 0.5991994,1.0378489 1.570694,1.0378489 2.1698934,0 0.5991894,-1.037839 0.5991994,-2.7205881 0,-3.75842708 C 2.9682374,-0.09672307 2.5758146,-0.35604567 2.1831438,-0.35605067 Z m 4.882389,2.81843257 c -0.3926707,-5e-6 -0.7856044,0.2598494 -1.0852044,0.7787639 -0.5991997,1.037829 -0.5991997,2.7200613 0,3.75791 0.5991997,1.0378484 1.5706931,1.0378484 2.1698928,0 0.5991887,-1.0378287 0.5991987,-2.720071 0,-3.75791 C 7.8506265,2.7222213 7.4582035,2.4623869 7.0655328,2.4623819 Z m 4.8818712,2.8189495 c -0.392671,-5e-6 -0.785089,0.2593376 -1.084688,0.7782471 -0.5992,1.0378293 -0.5992,2.7205674 0,3.7584258 0.599199,1.0378487 1.570694,1.0378387 2.169893,0 0.599189,-1.0378384 0.599199,-2.7205865 0,-3.7584258 C 12.733014,5.540659 12.340075,5.2813364 11.947404,5.2813314 Z m 4.882389,2.8189488 c -0.392671,-5e-6 -0.785088,0.259333 -1.084688,0.7782467 -0.599199,1.0378284 -0.599199,2.7205771 0,3.7584261 0.599199,1.037849 1.570694,1.037849 2.169893,0 0.59919,-1.037829 0.5992,-2.7205877 0,-3.7584261 C 17.615404,8.3596032 17.222464,8.1002852 16.829793,8.1002802 Z m 4.88239,2.8184318 c -0.392671,-5e-6 -0.785606,0.259854 -1.085205,0.778764 -0.5992,1.037829 -0.5992,2.720051 0,3.75791 0.599199,1.037849 1.570694,1.037839 2.169893,0 0.59919,-1.037839 0.5992,-2.720071 0,-3.75791 -0.299595,-0.51892 -0.692017,-0.778759 -1.084688,-0.778764 z m 4.882389,2.818949 c -0.392671,-5e-6 -0.785605,0.259333 -1.085205,0.778247 -0.599199,1.037829 -0.599199,2.720578 0,3.758427 0.5992,1.037849 1.570694,1.037849 2.169894,0 0.599189,-1.037829 0.599199,-2.720588 0,-3.758427 -0.299595,-0.518924 -0.692018,-0.778242 -1.084689,-0.778247 z m 4.881873,2.81895 c -0.392671,-7e-6 -0.785089,0.259332 -1.084688,0.778247 -0.5992,1.037829 -0.5992,2.720568 0,3.758427 0.599199,1.037849 1.570694,1.037839 2.169893,0 0.599189,-1.037839 0.599199,-2.720588 0,-3.758427 -0.299595,-0.51892 -0.692534,-0.778241 -1.085205,-0.778247 z m 4.882389,2.818432 c -0.39267,-5e-6 -0.785088,0.25985 -1.084688,0.778764 -0.599199,1.037829 -0.599199,2.720061 0,3.75791 0.599199,1.037849 1.570694,1.037849 2.169893,0 0.59919,-1.037829 0.5992,-2.720071 0,-3.75791 -0.299594,-0.518924 -0.692534,-0.778759 -1.085205,-0.778764 z m 4.88239,2.81895 c -0.392671,-6e-6 -0.785606,0.259332 -1.085205,0.778247 -0.5992,1.037829 -0.5992,2.720568 0,3.758427 0.599199,1.037839 1.570694,1.037839 2.169893,0 0.59919,-1.037839 0.5992,-2.720588 0,-3.758427 -0.299595,-0.51892 -0.692017,-0.778241 -1.084688,-0.778247 z"
     style="fill:#ffffff;stroke:none;stroke-width:0.264583px"
     id="path1" /></svg>
