<?xml version="1.0" encoding="UTF-8" standalone="no"?>
<!-- Created with Inkscape (http://www.inkscape.org/) -->

<svg
   width="38.184673mm"
   height="51.926792mm"
   viewBox="0 0 38.184673 51.926792"
   version="1.1"
   id="svg1"
   inkscape:version="1.3.2 (091e20e, 2023-11-25)"
   sodipodi:docname="monitor.svg"
   xmlns:inkscape="http://www.inkscape.org/namespaces/inkscape"
   xmlns:sodipodi="http://sodipodi.sourceforge.net/DTD/sodipodi-0.dtd"
   xmlns="http://www.w3.org/2000/svg"
   xmlns:svg="http://www.w3.org/2000/svg">
  <sodipodi:namedview
     id="namedview1"
     pagecolor="#ffffff"
     bordercolor="#666666"
     borderopacity="1.0"
     inkscape:showpageshadow="2"
     inkscape:pageopacity="0.0"
     inkscape:pagecheckerboard="0"
     inkscape:deskcolor="#d1d1d1"
     inkscape:document-units="mm"
     inkscape:zoom="2.3635395"
     inkscape:cx="86.311231"
     inkscape:cy="114.65855"
     inkscape:window-width="1440"
     inkscape:window-height="847"
     inkscape:window-x="0"
     inkscape:window-y="25"
     inkscape:window-maximized="1"
     inkscape:current-layer="svg1" />
  <defs
     id="defs1" />
  <path
     class="cls-1"
     d="m 18.457333,50.08525 v 1.68539 c -1.14565,0.29633 -2.54,0.16933 -3.47662,-0.36777 L 13.025438,50.2731 c -0.605896,-0.34925 -0.910167,-0.81227 -0.910167,-1.27265 v -1.68539 c 0,0.46037 0.304271,0.92339 0.910167,1.27264 l 1.955275,1.12978 c 0.93662,0.53975 2.33097,0.6641 3.47662,0.36777 z"
     id="path1"
     style="fill:#6666cc;stroke-width:0.264583" />
  <path
     class="cls-2"
     d="m 28.604103,45.21162 c 0.0556,0.49742 -0.24606,1.00806 -0.89958,1.38642 l -8.31586,4.80218 c -0.27781,0.1614 -0.59266,0.28311 -0.93133,0.36778 v -1.6854 c 0.33867,-0.0873 0.65352,-0.20902 0.93133,-0.36777 l 8.31586,-4.80219 c 0.60589,-0.35189 0.90752,-0.81227 0.90752,-1.27264 l -0.008,1.56898 z"
     id="path2"
     style="fill:#080833;stroke-width:0.264583" />
  <path
     class="cls-4"
     d="m 13.028084,46.04241 c -1.211792,0.6985 -1.211792,1.84415 0,2.54529 l 1.952629,1.12713 c 1.21179,0.6985 3.19616,0.6985 4.40795,0 l 8.31321,-4.79954 c 1.21179,-0.6985 1.21179,-1.84415 0,-2.54529 l -1.95262,-1.12713 c -1.21179,-0.6985 -3.19617,-0.6985 -4.40796,0 z"
     id="path3"
     style="fill:#a2a2fc;stroke-width:0.264583" />
  <polygon
     class="cls-1"
     points="462.92,236.22 459.28,234.1 465.64,193.64 469.27,195.76 "
     id="polygon3"
     style="fill:#6666cc"
     transform="matrix(0.26458333,0,0,0.26458333,-105.54229,-15.49967)" />
  <polygon
     class="cls-4"
     points="469.27,195.76 465.64,193.64 491.48,178.79 495.11,180.91 "
     id="polygon4"
     style="fill:#a2a2fc"
     transform="matrix(0.26458333,0,0,0.26458333,-105.54229,-15.49967)" />
  <polygon
     class="cls-2"
     points="495.11,180.91 488.76,221.36 462.92,236.22 469.27,195.76 "
     id="polygon5"
     style="fill:#080833"
     transform="matrix(0.26458333,0,0,0.26458333,-105.54229,-15.49967)" />
  <path
     class="cls-2"
     d="m 2.881313,48.23052 c -0.878417,0.508 -1.598084,0.0926 -1.595438,-0.9234 l 0.01323,-24.13 c 0,-1.01335 0.719667,-2.25954 1.598084,-2.76754 L 36.589233,0.95741 c 0.87841,-0.508 1.59808,-0.0926 1.59543,0.9234 l -0.0132,24.13 c 0,1.01335 -0.71966,2.25954 -1.59808,2.76754 z"
     id="path11"
     style="fill:#080833;stroke-width:0.264583" />
  <path
     class="cls-5"
     d="m 2.034646,23.6031 c 0,-1.01335 0.719667,-2.25954 1.598083,-2.76754 L 35.848393,2.23535 c 0.87842,-0.508 1.59809,-0.0926 1.59544,0.9234 l -0.0106,22.42608 c 0,1.01335 -0.71967,2.25954 -1.59809,2.76754 L 3.61948,46.95258 c -0.878416,0.508 -1.598083,0.0926 -1.595437,-0.9234 L 2.037273,23.6031 Z"
     id="path12"
     style="fill:#dcdcff;stroke-width:0.264583" />
  <path
     class="cls-1"
     d="M 2.323042,20.85673 1.045104,20.11854 C 0.4445,20.72973 0.015875,21.65048 0.015875,22.43364 L 5e-6,46.56364 c 0,0.508 0.179917,0.86784 0.468313,1.03188 L 1.746255,48.3337 C 1.457859,48.16702 1.277943,47.80718 1.277943,47.30183 l 0.01588,-24.13 c 0,-0.78317 0.428625,-1.70392 1.029229,-2.3151 z"
     id="path13"
     style="fill:#6666cc;stroke-width:0.264583" />
  <path
     class="cls-4"
     d="M 37.711063,0.84629 36.433123,0.1081 c -0.29104,-0.16669 -0.69056,-0.14817 -1.12712,0.10848 L 1.613959,19.66875 c -0.201084,0.11906 -0.391584,0.27252 -0.568855,0.45243 l 1.277938,0.73819 C 2.500313,20.67945 2.690813,20.526 2.891896,20.40693 L 36.583933,0.95477 c 0.43657,-0.254 0.83609,-0.27517 1.12713,-0.10848 z"
     id="path14"
     style="fill:#a2a2fc;stroke-width:0.264583" />
  <circle
     class="cls-3"
     cx="20.706293"
     cy="25.809732"
     id="attach-screen"
     style="fill:#ed1c24;stroke-width:0.264583"
     r="1" />
  <circle
     class="cls-3"
     cx="20.364977"
     cy="45.478848"
     id="attach-bottom"
     style="fill:#ed1c24;stroke-width:0.264583"
     r="1" />
</svg>
