<?xml version="1.0" encoding="UTF-8" standalone="no"?>
<!-- Created with Inkscape (http://www.inkscape.org/) -->

<svg
   width="38.744362mm"
   height="31.651176mm"
   viewBox="0 0 38.744362 31.651177"
   version="1.1"
   id="svg1"
   inkscape:version="1.3.2 (091e20e, 2023-11-25)"
   sodipodi:docname="small-server.svg"
   xmlns:inkscape="http://www.inkscape.org/namespaces/inkscape"
   xmlns:sodipodi="http://sodipodi.sourceforge.net/DTD/sodipodi-0.dtd"
   xmlns="http://www.w3.org/2000/svg"
   xmlns:svg="http://www.w3.org/2000/svg">
  <sodipodi:namedview
     id="namedview1"
     pagecolor="#ffffff"
     bordercolor="#666666"
     borderopacity="1.0"
     inkscape:showpageshadow="2"
     inkscape:pageopacity="0.0"
     inkscape:pagecheckerboard="0"
     inkscape:deskcolor="#d1d1d1"
     inkscape:document-units="mm"
     inkscape:zoom="3.7004332"
     inkscape:cx="96.069833"
     inkscape:cy="61.073931"
     inkscape:window-width="1440"
     inkscape:window-height="847"
     inkscape:window-x="0"
     inkscape:window-y="25"
     inkscape:window-maximized="1"
     inkscape:current-layer="svg1" />
  <defs
     id="defs1" />
  <path
     class="cls-2"
     d="m 38.744363,11.18446 v 9.28262 c 0,0.29402 -0.19224,0.58642 -0.57673,0.80775 l -17.39563,10.04352 c -0.14862,0.0856 -0.31501,0.15347 -0.49272,0.20516 v -9.28262 c 0.17771,-0.0517 0.3441,-0.11954 0.49272,-0.20517 L 38.167633,11.9922 c 0.38449,-0.22293 0.57673,-0.51534 0.57673,-0.80774 z"
     id="path21"
     style="fill:#080833;stroke-width:0.264583" />
  <path
     class="cls-1"
     d="m 20.279283,22.24089 v 9.28262 c -0.74474,0.22294 -1.68496,0.15347 -2.30531,-0.20516 L 0.578347,21.27483 C 0.193859,21.0535 0,20.7611 0,20.46708 v -9.28262 c 0,0.2924 0.193859,0.58481 0.578347,0.80774 l 17.395626,10.04352 c 0.62035,0.35864 1.56057,0.42811 2.30531,0.20517 z"
     id="path22"
     style="fill:#6666cc;stroke-width:0.264583" />
  <path
     class="cls-4"
     d="m 0.576731,11.9922 c -0.768975,-0.44426 -0.768975,-1.17123 0,-1.61549 L 17.972363,0.33319 c 0.76897,-0.44426 2.02905,-0.44426 2.79803,0 l 17.39563,10.04352 c 0.76897,0.44426 0.76897,1.17123 0,1.61549 l -17.39563,10.04352 c -0.76898,0.44426 -2.02906,0.44426 -2.79803,0 z"
     id="path23"
     style="fill:#a2a2fc;stroke-width:0.264583" />
  <circle
     class="cls-3"
     cx="19.371374"
     cy="8.950737"
     r="0.59450138"
     id="attach-top"
     style="fill:#ed1c24;stroke-width:0.264583" />
  <circle
     class="cls-3"
     cx="7.8188534"
     cy="22.963417"
     r="0.59450138"
     id="attach-front-left"
     style="fill:#ed1c24;stroke-width:0.264583" />
  <circle
     class="cls-3"
     cx="30.923895"
     cy="22.368912"
     r="0.59450138"
     id="attach-front-right"
     style="fill:#ed1c24;stroke-width:0.264583" />
  <circle
     class="cls-3"
     cx="19.371374"
     cy="23.233177"
     r="0.59450138"
     id="attach-bottom"
     style="fill:#ed1c24;stroke-width:0.264583" />
  <circle
     class="cls-3"
     cx="31.568571"
     cy="8.0248032"
     r="0.59450138"
     id="attach-back-right"
     style="fill:#ed1c24;stroke-width:0.264583" />
  <circle
     class="cls-3"
     cx="10.455473"
     cy="9.3347168"
     r="0.59450138"
     id="attach-back-left"
     style="fill:#ed1c24;stroke-width:0.264583" />
</svg>
