<?xml version="1.0" encoding="UTF-8" standalone="no"?>
<!-- Created with Inkscape (http://www.inkscape.org/) -->

<svg
   width="28.593521mm"
   height="20.285604mm"
   viewBox="0 0 28.593521 20.285604"
   version="1.1"
   id="svg1"
   inkscape:version="1.3.2 (091e20e, 2023-11-25)"
   sodipodi:docname="something.svg"
   xmlns:inkscape="http://www.inkscape.org/namespaces/inkscape"
   xmlns:sodipodi="http://sodipodi.sourceforge.net/DTD/sodipodi-0.dtd"
   xmlns="http://www.w3.org/2000/svg"
   xmlns:svg="http://www.w3.org/2000/svg">
  <sodipodi:namedview
     id="namedview1"
     pagecolor="#ffffff"
     bordercolor="#666666"
     borderopacity="1.0"
     inkscape:showpageshadow="2"
     inkscape:pageopacity="0.0"
     inkscape:pagecheckerboard="0"
     inkscape:deskcolor="#d1d1d1"
     inkscape:document-units="mm"
     inkscape:zoom="2.7163623"
     inkscape:cx="49.69882"
     inkscape:cy="21.720225"
     inkscape:window-width="1440"
     inkscape:window-height="847"
     inkscape:window-x="0"
     inkscape:window-y="25"
     inkscape:window-maximized="1"
     inkscape:current-layer="svg1" />
  <defs
     id="defs1" />
  <path
     d="M 13.34544,0 7.25227,3.51606 C 6.92948,3.70127 6.73086,4.04837 6.73086,4.42144 v 0.003 1.84071 L 7.86619,5.60938 c 0.0701,-0.0403 0.14434,-0.058 0.21652,-0.0568 0.21654,0.004 0.4129,0.17752 0.4129,0.41961 v 6.30762 c 0,0.37306 -0.19805,0.71965 -0.52349,0.90486 l -1.24126,0.71778 v 4.30413 c 0,0.39688 0.4286,0.6428 0.77256,0.447 l 3.33881,-1.92804 c 0.0215,-0.18821 0.0834,-0.36391 0.18035,-0.51625 -0.43431,-0.18758 -0.73857,-0.61923 -0.73845,-1.12241 1.2e-4,-0.67512 0.54755,-1.22231 1.22266,-1.22215 0.67491,1.3e-4 1.22202,0.54724 1.22215,1.22215 6e-5,0.24119 -0.0722,0.46476 -0.19275,0.65422 0.002,7.7e-4 0.003,0.002 0.005,0.003 l 1.88929,-1.09089 c -0.0772,0.0153 -0.15656,0.0243 -0.23822,0.0243 -0.67533,1.6e-4 -1.22283,-0.54734 -1.22267,-1.22266 1.3e-4,-0.67512 0.54755,-1.22231 1.22267,-1.22215 0.67491,1.3e-4 1.22202,0.54723 1.22214,1.22215 2e-5,0.0664 -0.005,0.13133 -0.0155,0.19482 0.14638,-0.062 0.30696,-0.0966 0.47594,-0.0966 0.0395,10e-6 0.0778,0.005 0.11627,0.008 0.0761,-0.14677 0.11937,-0.31131 0.11937,-0.48214 v -0.29094 c -0.43689,-0.18632 -0.74353,-0.61952 -0.74362,-1.12448 9e-5,-0.50495 0.30673,-0.93815 0.74362,-1.12448 V 10.18712 C 15.43536,10.18728 14.88795,9.64009 14.88782,8.96497 14.88766,8.28965 15.43516,7.74215 16.11048,7.74231 V 1.60056 l -1.38131,1.00356 v -0.003 C 14.10211,3.05885 14.01482,2.78092 13.89047,2.474 L 13.34838,0.0018 Z"
     style="fill:#efeeff"
     id="path28" />
  <path
     d="m 13.34802,0 0.54261,2.47375 c 0.12435,0.30692 0.21164,0.58485 0.8387,0.12712 v 0.003 l 1.3839,-1.00562 z"
     style="fill:#f1a4ff"
     id="path27" />
  <path
     d="m 8.08271,5.55212 c -0.0722,-0.001 -0.14641,0.0165 -0.21652,0.0568 l -7.34477,4.2416 v 0.003 C 0.19862,10.03872 0,10.38531 0,10.75837 v 6.30762 c 0,0.3228 0.34948,0.52365 0.62994,0.36226 l 2.42879,-1.40457 1.17719,3.04013 1.95543,-4.84984 1.78077,-1.02939 C 8.29756,12.99937 8.49561,12.65279 8.49561,12.27972 V 5.9721 c 0,-0.24209 -0.19635,-0.41602 -0.4129,-0.41961 z"
     style="fill:#f1a4ff"
     id="path26" />
  <path
     d="m 16.11064,7.74165 c -0.67532,-1.6e-4 -1.22282,0.54734 -1.22266,1.22266 1.3e-4,0.67512 0.54754,1.22231 1.22266,1.22215 0.67493,-1.3e-4 1.22203,-0.54723 1.22215,-1.22215 C 17.33284,8.76075 17.28279,8.56884 17.19482,8.4 16.99757,8.28384 16.83794,8.11523 16.7318,7.91166 16.54976,7.80398 16.33747,7.74169 16.11064,7.74165 Z"
     style="fill:#f1a4ff"
     id="path25" />
  <path
     d="m 16.58917,10.44071 c -0.67492,1.2e-4 -1.22202,0.54722 -1.22215,1.22214 1.3e-4,0.67492 0.54723,1.22203 1.22215,1.22215 0.40033,10e-5 0.75571,-0.19251 0.97875,-0.48989 -0.266,-0.22419 -0.43866,-0.55561 -0.43873,-0.93069 5e-5,-0.27663 0.0945,-0.52962 0.24959,-0.73433 -0.21305,-0.18039 -0.48858,-0.28945 -0.78961,-0.28938 z"
     style="fill:#f1a4ff"
     id="path24" />
  <path
     d="m 14.19242,12.23181 c -0.67513,-1.6e-4 -1.22254,0.54703 -1.22267,1.22215 -1.6e-4,0.67532 0.54734,1.22282 1.22267,1.22266 0.17041,-3e-5 0.3327,-0.0352 0.48007,-0.0982 0.068,-0.41971 0.34637,-0.76855 0.72657,-0.92966 0.0102,-0.0635 0.0155,-0.12846 0.0155,-0.19482 -1.2e-4,-0.67492 -0.54722,-1.22202 -1.22214,-1.22215 z"
     style="fill:#f1a4ff"
     id="path23" />
  <path
     d="m 12.53619,15.74064 c -0.21687,0.34086 -0.59548,0.56836 -1.0294,0.56844 -0.17213,4e-5 -0.33564,-0.0361 -0.48421,-0.10025 -0.12069,0.18954 -0.19074,0.41441 -0.19068,0.65577 1.2e-4,0.67513 0.54754,1.22231 1.22266,1.22215 0.67492,-1.2e-4 1.22202,-0.54723 1.22215,-1.22215 1.2e-4,-0.50412 -0.30488,-0.93695 -0.74052,-1.12396 z"
     style="fill:#f1a4ff"
     id="path22" />
  <path
     d="m 14.70246,15.10089 c -0.65267,0.0253 -1.17396,0.56227 -1.17409,1.22111 -1.6e-4,0.67512 0.54703,1.22254 1.22215,1.22267 0.67512,-1.3e-4 1.22231,-0.54755 1.22215,-1.22267 -2e-5,-0.11391 -0.0158,-0.22405 -0.045,-0.32866 -0.0177,7.6e-4 -0.0348,0.004 -0.0527,0.004 -0.56128,-1.1e-4 -1.02912,-0.38052 -1.17254,-0.89607 z"
     style="fill:#f1a4ff"
     id="path21" />
  <path
     d="m 17.71106,12.75013 c -0.59344,1.1e-4 -1.08801,0.42303 -1.19889,0.98392 0.20894,0.12838 0.37746,0.31597 0.47852,0.54156 0.1799,-0.1849 0.43479,-0.30274 0.72037,-0.30282 0.30217,-6e-5 0.56905,0.13204 0.74983,0.3359 0.13825,-0.058 0.28999,-0.0893 0.44855,-0.0925 0.0159,-0.0786 0.0243,-0.16009 0.0243,-0.2434 1.6e-4,-0.67532 -0.54734,-1.22282 -1.22267,-1.22266 z"
     style="fill:#f1a4ff"
     id="path20" />
  <path
     d="m 18.93373,8.51163 c -0.67512,-1.6e-4 -1.22254,0.54702 -1.22267,1.22214 -5e-5,0.2209 0.0588,0.42784 0.16123,0.60668 0.14724,-0.0629 0.30883,-0.0982 0.47904,-0.0982 0.45449,-1.1e-4 0.84657,0.25053 1.0573,0.61857 0.1403,-0.0592 0.26687,-0.14425 0.37466,-0.24857 C 19.65294,10.4178 19.57652,10.18387 19.57658,9.93219 19.57665,9.58748 19.72061,9.27742 19.9502,9.05524 19.73098,8.72756 19.35756,8.51168 18.93373,8.51161 Z"
     style="fill:#f1a4ff"
     id="path19" />
  <path
     d="m 18.35133,10.24227 c -0.67492,1.2e-4 -1.22202,0.54723 -1.22214,1.22215 1.2e-4,0.67492 0.54722,1.22202 1.22214,1.22214 0.67513,1.6e-4 1.22254,-0.54702 1.22267,-1.22214 -1.3e-4,-0.67513 -0.54754,-1.22231 -1.22267,-1.22215 z"
     style="fill:#f7ccff"
     id="path18" />
  <path
     d="m 15.875,13.55214 c -0.67492,1.3e-4 -1.22202,0.54723 -1.22215,1.22215 -1.6e-4,0.67512 0.54703,1.22254 1.22215,1.22267 0.42917,-8e-5 0.8062,-0.22142 1.02423,-0.55604 -0.10882,-0.15084 -0.17309,-0.33339 -0.17312,-0.5302 3e-5,-0.246 0.10183,-0.46782 0.26458,-0.63511 -0.19091,-0.42614 -0.61853,-0.72337 -1.11569,-0.72347 z"
     style="fill:#f7ccff"
     id="path17" />
  <path
     d="m 23.97941,9.03562 c -0.67512,-1.6e-4 -1.22253,0.54703 -1.22266,1.22215 -1.6e-4,0.67533 0.54734,1.22283 1.22266,1.22267 0.67513,-1.3e-4 1.22231,-0.54755 1.22215,-1.22267 -1.2e-4,-0.67492 -0.54722,-1.22202 -1.22215,-1.22215 z"
     style="fill:#f1a4ff"
     id="path16" />
  <path
     d="m 20.40754,11.84269 c -0.67532,-1.6e-4 -1.22282,0.54734 -1.22266,1.22266 1.2e-4,0.67513 0.54754,1.22231 1.22266,1.22215 0.67492,-1.3e-4 1.22202,-0.54723 1.22215,-1.22215 1.6e-4,-0.67512 -0.54703,-1.22254 -1.22215,-1.22266 z"
     style="fill:#f1a4ff"
     id="path15" />
  <path
     d="m 11.50679,13.86427 c -0.67512,-1.6e-4 -1.22254,0.54703 -1.22266,1.22215 -1.6e-4,0.67532 0.54734,1.22282 1.22266,1.22266 0.67512,-1.2e-4 1.22231,-0.54754 1.22215,-1.22266 -1.3e-4,-0.67492 -0.54723,-1.22202 -1.22215,-1.22215 z"
     style="fill:#f1a4ff"
     id="path14" />
  <path
     d="m 20.79873,4.79402 c -0.67512,1.3e-4 -1.22231,0.54754 -1.22215,1.22267 1.3e-4,0.67492 0.54723,1.22202 1.22215,1.22214 0.67512,1.6e-4 1.22254,-0.54702 1.22266,-1.22214 1.6e-4,-0.67533 -0.54734,-1.22283 -1.22266,-1.22267 z"
     style="fill:#f1a4ff"
     id="path13" />
  <path
     d="m 17.81183,6.12779 c -0.67512,-1.6e-4 -1.22254,0.54703 -1.22266,1.22215 -1.6e-4,0.67532 0.54734,1.22282 1.22266,1.22266 0.67513,-1.2e-4 1.22231,-0.54754 1.22215,-1.22266 -1.3e-4,-0.67492 -0.54723,-1.22202 -1.22215,-1.22215 z"
     style="fill:#f7ccff"
     id="path12" />
  <path
     d="M 18.93373,1.93683 C 18.25861,1.93667 17.71119,2.48386 17.71106,3.15898 17.7109,3.8343 18.2584,4.3818 18.93373,4.38164 19.60885,4.38152 20.15604,3.8341 20.15588,3.15898 20.15575,2.48406 19.60865,1.93696 18.93373,1.93683 Z"
     style="fill:#f1a4ff"
     id="path11" />
  <path
     d="m 18.93373,14.2136 c -0.16764,-4e-5 -0.32738,0.0341 -0.47284,0.0951 0.14478,0.16327 0.23561,0.37162 0.23564,0.60203 -6e-5,0.4955 -0.40499,0.89685 -0.91622,0.93121 0.16739,0.47568 0.62047,0.81661 1.15342,0.81648 0.67512,-1.2e-4 1.22231,-0.54754 1.22215,-1.22266 -1.3e-4,-0.67492 -0.54723,-1.22202 -1.22215,-1.22215 z"
     style="fill:#f7ccff"
     id="path10" />
  <path
     d="m 16.48633,17.84077 c -0.67532,-1.6e-4 -1.22282,0.54734 -1.22266,1.22267 1.2e-4,0.67512 0.54754,1.2223 1.22266,1.22214 0.67492,-1.2e-4 1.22202,-0.54722 1.22215,-1.22214 1.6e-4,-0.67513 -0.54703,-1.22254 -1.22215,-1.22267 z"
     style="fill:#f7ccff"
     id="path9" />
  <path
     d="m 20.79873,8.71006 c -0.67492,1.3e-4 -1.22202,0.54723 -1.22215,1.22215 -1.6e-4,0.67512 0.54703,1.22254 1.22215,1.22266 0.67532,1.6e-4 1.22282,-0.54734 1.22266,-1.22266 C 22.02127,9.25709 21.47385,8.7099 20.79873,8.71006 Z"
     style="fill:#f7ccff"
     id="path8" />
  <path
     d="m 24.36802,4.79402 c -0.67512,1.3e-4 -1.22231,0.54754 -1.22215,1.22267 1.3e-4,0.67492 0.54723,1.22202 1.22215,1.22214 0.67512,1.6e-4 1.22254,-0.54702 1.22267,-1.22214 1.6e-4,-0.67533 -0.54734,-1.22283 -1.22267,-1.22267 z"
     style="fill:#efeeff"
     id="path7" />
  <path
     d="m 24.5985,16.30908 c -0.67512,-1.6e-4 -1.22254,0.54703 -1.22267,1.22215 -1.6e-4,0.67532 0.54734,1.22282 1.22267,1.22266 0.67512,-1.2e-4 1.22231,-0.54754 1.22215,-1.22266 -1.3e-4,-0.67492 -0.54723,-1.22202 -1.22215,-1.22215 z"
     style="fill:#efeeff"
     id="path6" />
  <path
     d="m 21.20904,16.96227 c -0.67532,-1.6e-4 -1.22282,0.54734 -1.22266,1.22267 1.2e-4,0.67512 0.54754,1.2223 1.22266,1.22214 0.67492,-1.2e-4 1.22202,-0.54722 1.22215,-1.22214 1.6e-4,-0.67513 -0.54703,-1.22254 -1.22215,-1.22267 z"
     style="fill:#efeeff"
     id="path5" />
  <path
     d="m 27.37094,7.74165 c -0.67512,1.2e-4 -1.22231,0.54754 -1.22215,1.22266 1.3e-4,0.67492 0.54723,1.22202 1.22215,1.22215 0.67512,1.6e-4 1.22254,-0.54703 1.22266,-1.22215 1.6e-4,-0.67532 -0.54734,-1.22282 -1.22266,-1.22266 z"
     style="fill:#efeeff"
     id="path4" />
  <path
     d="m 26.32087,12.98835 c -0.67532,-1.6e-4 -1.22282,0.54734 -1.22266,1.22267 1.3e-4,0.67512 0.54754,1.22231 1.22266,1.22215 0.67492,-1.3e-4 1.22203,-0.54723 1.22215,-1.22215 1.6e-4,-0.67512 -0.54702,-1.22254 -1.22215,-1.22267 z"
     style="fill:#efeeff"
     id="path3" />
  <path
     d="m 22.75675,12.63902 c -0.67512,1.3e-4 -1.22231,0.54754 -1.22215,1.22267 1.3e-4,0.67492 0.54723,1.22202 1.22215,1.22214 0.67512,1.6e-4 1.22254,-0.54702 1.22266,-1.22214 1.6e-4,-0.67533 -0.54734,-1.22283 -1.22266,-1.22267 z"
     style="fill:#f7ccff"
     id="path2" />
  <circle
     style="opacity:0.419954;fill:#000000;stroke-width:0.396875;stroke-linecap:round;stroke-dasharray:0.529167, 0.529167"
     id="attach-point"
     cx="14.192155"
     cy="18.748169"
     r="0.77922845" />
</svg>
